{"title":"Zeki Okten - Suru.AKAThe.Herd.1979.DVDRip.x264","uid":9510854,"size":1844362287,"categoryP":"video","categoryS":"movies","magnet":"?xt=urn:btih:0fa580b00df40219b60b991719220ca14516c9ac&amp;dn=Zeki+Okten+-+Suru.AKAThe.Herd.1979.DVDRip.x264&amp;tr=udp%3A%2F%2Ftracker.openbittorrent.com%3A80&amp;tr=udp%3A%2F%2Fopen.demonii.com%3A1337&amp;tr=udp%3A%2F%2Ftracker.coppersurfer.tk%3A6969&amp;tr=udp%3A%2F%2Fexodus.desync.com%3A6969","seeders":1,"leechers":0,"uploader":"rpessoa","files":4,"time":1390409932,"description":"Because of a local blood feud, a peasant family in eastern Turkey decides to sell its sheep - a most precious commodity - in far away Ankara. During their long train ride, bribes must be paid to petty officials, sheep are stolen or die in the packed, airless, contaminated wagons, and the sick wife of one of the family's sons becomes deathly ill. Written by Daniel YatesFrom IMDb\n\nSUBS: English, French, German, Portuguese\n &lt;a href=&quot;\nhttp://www.imdb.com/title/tt0078355/&quot; rel=&quot;nofollow&quot; target=&quot;_NEW&quot;&gt;\nhttp://www.imdb.com/title/tt0078355/&lt;/a&gt;\n\nGeneral\nUnique ID                        : 134598180017481208685367457875924522407 (0x6542AAA21336CBA1AF1E4B7175FA95A7)\nComplete name                    : Suru.AKAThe.Herd.1979.DVDRip.x264.mkv\nFormat                           : Matroska\nFormat version                   : Version 2\nFile size                        : 1.72 GiB\nDuration                         : 1h 57mn\nOverall bit rate                 : 2 093 Kbps\nWriting application              : HandBrake 0.9.9\nWriting library                  : libmkv 0.6.5\n\nVideo\nID                               : 1\nFormat                           : AVC\nFormat/Info                      : Advanced Video Codec\nFormat profile                   : &lt;a class=&quot;__cf_email__&quot; href=&quot;/cdn-cgi/l/email-protection&quot; data-cfemail=&quot;b2fadbd5daf2fe819c83&quot;&gt;[email&amp;#160;protected]&lt;/a&gt;&lt;script cf-hash='f9e31' type=&quot;text/javascript&quot;&gt;\n/* &lt;![CDATA[ */!function(){try{var t=&quot;currentScript&quot;in document?document.currentScript:function(){for(var t=document.getElementsByTagName(&quot;script&quot;),e=t.length;e--;)if(t[e].getAttribute(&quot;cf-hash&quot;))return t[e]}();if(t&amp;&amp;t.previousSibling){var e,r,n,i,c=t.previousSibling,a=c.getAttribute(&quot;data-cfemail&quot;);if(a){for(e=&quot;&quot;,r=parseInt(a.substr(0,2),16),n=2;a.length-n;n+=2)i=parseInt(a.substr(n,2),16)^r,e+=String.fromCharCode(i);e=document.createTextNode(e),c.parentNode.replaceChild(e,c)}}}catch(u){}}();/* ]]&gt; */&lt;/script&gt;\nFormat settings, CABAC           : Yes\nFormat settings, ReFrames        : 11 frames\nFormat settings, GOP             : M=10, N=50\nCodec ID                         : V_MPEG4/ISO/AVC\nDuration                         : 1h 57mn\nBit rate                         : 1 890 Kbps\nWidth                            : 684 pixels\nHeight                           : 544 pixels\nDisplay aspect ratio             : 4:3\nOriginal display aspect ratio    : 4:3\nFrame rate                       : 25.000 fps\nColor space                      : YUV\nChroma subsampling               : 4:2:0\nBit depth                        : 8 bits\nScan type                        : Progressive\nBits/(Pixel*Frame)               : 0.203\nStream size                      : 1.53 GiB (89%)\nWriting library                  : x264 core 130 r2273 b3065e6\nEncoding settings                : cabac=1 / ref=11 / deblock=1:-3:-3 / analyse=0x3:0x113 / me=umh / subme=11 / psy=1 / psy_rd=1.00:0.00 / mixed_ref=1 / me_range=24 / chroma_me=1 / trellis=2 / 8x8dct=1 / cqm=0 / deadzone=21,11 / fast_pskip=0 / chroma_qp_offset=-2 / threads=12 / lookahead_threads=2 / sliced_threads=0 / nr=0 / decimate=1 / interlaced=0 / bluray_compat=0 / constrained_intra=0 / bframes=9 / b_pyramid=2 / b_adapt=2 / b_bias=0 / direct=3 / weightb=1 / open_gop=0 / weightp=2 / keyint=250 / keyint_min=25 / scenecut=40 / intra_refresh=0 / rc_lookahead=60 / rc=2pass / mbtree=1 / bitrate=1890 / ratetol=1.0 / qcomp=0.60 / qpmin=0 / qpmax=69 / qpstep=4 / cplxblur=20.0 / qblur=0.5 / ip_ratio=1.40 / aq=2:1.00\nLanguage                         : English\nColor primaries                  : BT.470-6 System B, BT.470-6 System G, BT.601-6 625, BT.1358 625, BT.1700 625 PAL, BT.1700 625 SECAM\nTransfer characteristics         : BT.709-5, BT.1361\nMatrix coefficients              : BT.601-6 525, BT.1358 525, BT.1700 NTSC, SMPTE 170M\n\nAudio\nID                               : 2\nFormat                           : AC-3\nFormat/Info                      : Audio Coding 3\nMode extension                   : CM (complete main)\nCodec ID                         : A_AC3\nDuration                         : 1h 57mn\nBit rate mode                    : Constant\nBit rate                         : 192 Kbps\nChannel(s)                       : 2 channels\nChannel positions                : Front: L R\nSampling rate                    : 48.0 KHz\nBit depth                        : 16 bits\nCompression mode                 : Lossy\nStream size                      : 161 MiB (9%)\n\nText #1\nID                               : 3\nFormat                           : VobSub\nCodec ID                         : S_VOBSUB\nCodec ID/Info                    : The same subtitle format used on DVDs\nLanguage                         : English\n\nText #2\nID                               : 4\nFormat                           : VobSub\nCodec ID                         : S_VOBSUB\nCodec ID/Info                    : The same subtitle format used on DVDs\nLanguage                         : German\n\nText #3\nID                               : 5\nFormat                           : VobSub\nCodec ID                         : S_VOBSUB\nCodec ID/Info                    : The same subtitle format used on DVDs\nLanguage                         : French\n\nMenu\n00:00:00.000                     : Chapter 1\n00:01:33.680                     : Chapter 2\n00:08:19.760                     : Chapter 3\n00:19:26.480                     : Chapter 4\n00:26:43.280                     : Chapter 5\n00:33:27.920                     : Chapter 6\n00:43:12.080                     : Chapter 7\n00:50:30.800                     : Chapter 8\n00:59:34.640                     : Chapter 9\n01:06:14.480                     : Chapter 10\n01:14:17.840                     : Chapter 11\n01:23:50.480                     : Chapter 12\n01:27:29.840                     : Chapter 13\n01:31:20.720                     : Chapter 14\n01:40:35.600                     : Chapter 15\n01:50:14.000                     : Chapter 16\n\nMy rip.","torrent":{"xt":"urn:btih:0fa580b00df40219b60b991719220ca14516c9ac","amp;dn":"Zeki+Okten+-+Suru.AKAThe.Herd.1979.DVDRip.x264","amp;tr":["udp%3A%2F%2Ftracker.openbittorrent.com%3A80","udp%3A%2F%2Fopen.demonii.com%3A1337","udp%3A%2F%2Ftracker.coppersurfer.tk%3A6969","udp%3A%2F%2Fexodus.desync.com%3A6969"],"infoHash":"0fa580b00df40219b60b991719220ca14516c9ac","infoHashBuffer":{"type":"Buffer","data":[15,165,128,176,13,244,2,25,182,11,153,23,25,34,12,161,69,22,201,172]},"announce":[],"urlList":[]}}